<?xml version="1.0" encoding="UTF-8" standalone="no"?>
<!-- Created with Inkscape (http://www.inkscape.org/) -->

<svg
   width="175.19472mm"
   height="41.116734mm"
   viewBox="0 0 175.19471 41.116733"
   version="1.1"
   id="svg7635"
   inkscape:version="1.2.2 (b0a8486541, 2022-12-01)"
   sodipodi:docname="nonono_graphic.svg"
   xmlns:inkscape="http://www.inkscape.org/namespaces/inkscape"
   xmlns:sodipodi="http://sodipodi.sourceforge.net/DTD/sodipodi-0.dtd"
   xmlns="http://www.w3.org/2000/svg"
   xmlns:svg="http://www.w3.org/2000/svg"
   xmlns:rdf="http://www.w3.org/1999/02/22-rdf-syntax-ns#"
   xmlns:cc="http://creativecommons.org/ns#"
   xmlns:dc="http://purl.org/dc/elements/1.1/">
  <defs
     id="defs7629">
    <clipPath
       clipPathUnits="userSpaceOnUse"
       id="clipPath2234">
      <path
         d="m 383.813,168.724 h 12.54 v -20.556 h -12.54 z"
         id="path2232"
         inkscape:connector-curvature="0" />
    </clipPath>
    <clipPath
       clipPathUnits="userSpaceOnUse"
       id="clipPath2218">
      <path
         d="m 383.736,212.348 h 12.539 v -20.556 h -12.539 z"
         id="path2216"
         inkscape:connector-curvature="0" />
    </clipPath>
    <clipPath
       clipPathUnits="userSpaceOnUse"
       id="clipPath2202">
      <path
         d="m 383.699,251.031 h 12.539 v -20.556 h -12.539 z"
         id="path2200"
         inkscape:connector-curvature="0" />
    </clipPath>
    <clipPath
       clipPathUnits="userSpaceOnUse"
       id="clipPath2186">
      <path
         d="M 383.829,300.647 H 396.37 V 280.09 h -12.541 z"
         id="path2184"
         inkscape:connector-curvature="0" />
    </clipPath>
  </defs>
  <sodipodi:namedview
     id="base"
     pagecolor="#ffffff"
     bordercolor="#666666"
     borderopacity="1.0"
     inkscape:pageopacity="0.0"
     inkscape:pageshadow="2"
     inkscape:zoom="0.41049805"
     inkscape:cx="350.79338"
     inkscape:cy="152.25407"
     inkscape:document-units="mm"
     inkscape:current-layer="layer1"
     showgrid="false"
     inkscape:window-width="948"
     inkscape:window-height="1064"
     inkscape:window-x="0"
     inkscape:window-y="0"
     inkscape:window-maximized="1"
     inkscape:showpageshadow="2"
     inkscape:pagecheckerboard="0"
     inkscape:deskcolor="#d1d1d1" />
  <metadata
     id="metadata7632">
    <rdf:RDF>
      <cc:Work
         rdf:about="">
        <dc:format>image/svg+xml</dc:format>
        <dc:type
           rdf:resource="http://purl.org/dc/dcmitype/StillImage" />
        <dc:title />
      </cc:Work>
    </rdf:RDF>
  </metadata>
  <g
     inkscape:label="Layer 1"
     inkscape:groupmode="layer"
     id="layer1"
     transform="translate(-16.113556,-108.92764)">
    <g
       id="g8632"
       transform="matrix(0,-2.9736158,2.9736158,0,-250.98877,268.16724)">
      <g
         transform="matrix(0.35277777,0,0,-0.35277777,42.459117,92.288213)"
         id="g1940">
        <path
           inkscape:connector-curvature="0"
           id="path1942"
           style="fill:#00aeef;fill-opacity:1;fill-rule:nonzero;stroke:none"
           d="m 0,0 v 0.837 l 2.601,1.49 H 0 V 3.021 H 3.653 V 2.185 L 1.053,0.7 h 2.6 V 0 Z" />
      </g>
      <g
         transform="matrix(0.35277777,0,0,-0.35277777,42.934557,93.179788)"
         id="g1944">
        <path
           inkscape:connector-curvature="0"
           id="path1946"
           style="fill:#00aeef;fill-opacity:1;fill-rule:nonzero;stroke:none"
           d="M 0,0 C 0.469,0 0.795,0.301 0.795,0.669 0.795,1.037 0.469,1.337 0,1.337 -0.458,1.337 -0.773,1.037 -0.773,0.669 -0.773,0.301 -0.458,0 0,0 m 0.005,-0.7 c -0.811,0 -1.416,0.616 -1.416,1.369 0,0.753 0.605,1.363 1.416,1.363 0.811,0 1.427,-0.61 1.427,-1.363 0,-0.753 -0.616,-1.369 -1.427,-1.369" />
      </g>
      <g
         transform="matrix(0.35277777,0,0,-0.35277777,43.357957,95.144901)"
         id="g1948">
        <path
           inkscape:connector-curvature="0"
           id="path1950"
           style="fill:#00aeef;fill-opacity:1;fill-rule:nonzero;stroke:none"
           d="m 0,0 v 0.695 c 0.316,0 0.553,0.263 0.553,0.705 0,0.369 -0.142,0.711 -0.421,0.711 -0.253,0 -0.343,-0.248 -0.458,-0.805 -0.174,-0.869 -0.39,-1.416 -1.138,-1.416 -0.705,0 -1.147,0.59 -1.147,1.51 0,0.716 0.395,1.496 1.274,1.496 V 2.2 c -0.432,0 -0.637,-0.431 -0.637,-0.8 0,-0.4 0.142,-0.816 0.49,-0.816 0.231,0 0.374,0.19 0.505,0.863 0.131,0.674 0.332,1.359 1.116,1.359 C 0.764,2.806 1.2,2.253 1.2,1.4 1.2,0.437 0.579,0 0,0" />
      </g>
      <g
         transform="matrix(0.35277777,0,0,-0.35277777,42.934557,96.028893)"
         id="g1952">
        <path
           inkscape:connector-curvature="0"
           id="path1954"
           style="fill:#00aeef;fill-opacity:1;fill-rule:nonzero;stroke:none"
           d="M 0,0 C 0.469,0 0.795,0.3 0.795,0.668 0.795,1.037 0.469,1.337 0,1.337 -0.458,1.337 -0.773,1.037 -0.773,0.668 -0.773,0.3 -0.458,0 0,0 m 0.005,-0.7 c -0.811,0 -1.416,0.616 -1.416,1.368 0,0.753 0.605,1.364 1.416,1.364 0.811,0 1.427,-0.611 1.427,-1.364 0,-0.752 -0.616,-1.368 -1.427,-1.368" />
      </g>
      <path
         inkscape:connector-curvature="0"
         id="path1956"
         style="fill:#00aeef;fill-opacity:1;fill-rule:nonzero;stroke:none;stroke-width:0.352778"
         d="m 42.459007,96.448945 h 1.38183 v 0.244828 h -1.38183 z" />
      <g
         transform="matrix(0.35277777,0,0,-0.35277777,43.209477,97.356995)"
         id="g1958">
        <path
           inkscape:connector-curvature="0"
           id="path1960"
           style="fill:#00aeef;fill-opacity:1;fill-rule:nonzero;stroke:none"
           d="m 0,0 c 0,0.385 -0.337,0.695 -0.779,0.695 -0.432,0 -0.764,-0.31 -0.764,-0.695 0,-0.384 0.343,-0.695 0.764,-0.695 C -0.348,-0.695 0,-0.384 0,0 m -2.127,-1.39 v 0.663 h 0.289 c -0.221,0.216 -0.347,0.5 -0.347,0.832 0,0.706 0.611,1.29 1.411,1.29 0.805,0 1.416,-0.584 1.416,-1.29 0,-0.316 -0.116,-0.589 -0.316,-0.8 H 1.79 V -1.39 Z" />
      </g>
      <g
         transform="matrix(0.35277777,0,0,-0.35277777,43.042367,98.748103)"
         id="g1962">
        <path
           inkscape:connector-curvature="0"
           id="path1964"
           style="fill:#00aeef;fill-opacity:1;fill-rule:nonzero;stroke:none"
           d="M 0,0 C 0.315,0.084 0.516,0.348 0.516,0.679 0.516,0.995 0.315,1.247 0,1.348 Z M -0.569,1.358 C -0.9,1.268 -1.105,1.006 -1.105,0.679 c 0,-0.232 0.099,-0.458 0.315,-0.574 V -0.637 C -1.343,-0.48 -1.717,0 -1.717,0.674 c 0,0.763 0.632,1.389 1.416,1.389 0.785,0 1.427,-0.626 1.427,-1.389 0,-0.8 -0.621,-1.464 -1.695,-1.364 z" />
      </g>
      <g
         transform="matrix(0.35277777,0,0,-0.35277777,42.969687,100.01659)"
         id="g1966">
        <path
           inkscape:connector-curvature="0"
           id="path1968"
           style="fill:#00aeef;fill-opacity:1;fill-rule:nonzero;stroke:none"
           d="m 0,0 v 0.694 h 0.138 c 0.157,0 0.536,0.048 0.536,0.506 0,0.311 -0.232,0.527 -0.536,0.527 H -1.447 V 2.421 H 1.264 V 1.758 H 1.001 C 1.206,1.584 1.332,1.348 1.332,1.058 1.332,0.421 0.854,0 0.138,0 Z" />
      </g>
      <path
         inkscape:connector-curvature="0"
         id="path1970"
         style="fill:#00aeef;fill-opacity:1;fill-rule:nonzero;stroke:none;stroke-width:0.352778"
         d="m 43.519457,100.16934 h 0.22825 v 0.24483 h -0.22825 z m -1.06045,0 h 0.95638 v 0.24483 h -0.95638 z" />
      <g
         transform="matrix(0.35277777,0,0,-0.35277777,42.459117,101.49868)"
         id="g1972">
        <path
           inkscape:connector-curvature="0"
           id="path1974"
           style="fill:#00aeef;fill-opacity:1;fill-rule:nonzero;stroke:none"
           d="m 0,0 v 0.694 h 1.585 c 0.157,0 0.536,0.048 0.536,0.506 0,0.311 -0.231,0.527 -0.536,0.527 H 0 V 2.421 H 2.711 V 1.758 H 2.448 C 2.653,1.584 2.779,1.348 2.779,1.058 2.779,0.421 2.301,0 1.585,0 Z" />
      </g>
      <g
         transform="matrix(0.35277777,0,0,-0.35277777,43.209477,102.15255)"
         id="g1976">
        <path
           inkscape:connector-curvature="0"
           id="path1978"
           style="fill:#00aeef;fill-opacity:1;fill-rule:nonzero;stroke:none"
           d="m 0,0 c 0,0.384 -0.337,0.694 -0.779,0.694 -0.432,0 -0.764,-0.31 -0.764,-0.694 0,-0.385 0.343,-0.695 0.764,-0.695 C -0.348,-0.695 0,-0.385 0,0 m -1.99,-1.391 c -0.901,0 -1.463,0.538 -1.463,1.407 0,0.647 0.373,1.211 0.947,1.315 V 0.568 c -0.216,-0.089 -0.3,-0.363 -0.3,-0.552 0,-0.491 0.321,-0.711 0.805,-0.711 h 0.132 c -0.2,0.211 -0.316,0.484 -0.316,0.8 0,0.706 0.611,1.29 1.411,1.29 0.805,0 1.416,-0.584 1.416,-1.29 0,-0.332 -0.126,-0.616 -0.347,-0.832 h 0.289 v -0.664 z" />
      </g>
      <g
         transform="matrix(0.35277777,0,0,-0.35277777,42.413287,111.19594)"
         id="g1980">
        <path
           inkscape:connector-curvature="0"
           id="path1982"
           style="fill:#00aeef;fill-opacity:1;fill-rule:nonzero;stroke:none"
           d="M 0,0 V 0.837 L 2.601,2.326 H 0 V 3.021 H 3.653 V 2.185 l -2.6,-1.486 h 2.6 V 0 Z" />
      </g>
      <g
         transform="matrix(0.35277777,0,0,-0.35277777,42.888727,112.08751)"
         id="g1984">
        <path
           inkscape:connector-curvature="0"
           id="path1986"
           style="fill:#00aeef;fill-opacity:1;fill-rule:nonzero;stroke:none"
           d="M 0,0 C 0.469,0 0.795,0.3 0.795,0.668 0.795,1.037 0.469,1.337 0,1.337 -0.458,1.337 -0.773,1.037 -0.773,0.668 -0.773,0.3 -0.458,0 0,0 m 0.005,-0.7 c -0.811,0 -1.416,0.616 -1.416,1.368 0,0.753 0.605,1.364 1.416,1.364 0.811,0 1.427,-0.611 1.427,-1.364 0,-0.752 -0.616,-1.368 -1.427,-1.368" />
      </g>
      <g
         transform="matrix(0.35277777,0,0,-0.35277777,43.473707,113.58304)"
         id="g1988">
        <path
           inkscape:connector-curvature="0"
           id="path1990"
           style="fill:#00aeef;fill-opacity:1;fill-rule:nonzero;stroke:none"
           d="M 0,0 H -3.006 V 0.695 H 0 v 0.98 H 0.647 V -0.979 H 0 Z" />
      </g>
      <g
         transform="matrix(0.35277777,0,0,-0.35277777,42.888727,114.56352)"
         id="g1992">
        <path
           inkscape:connector-curvature="0"
           id="path1994"
           style="fill:#00aeef;fill-opacity:1;fill-rule:nonzero;stroke:none"
           d="M 0,0 C 0.469,0 0.795,0.3 0.795,0.668 0.795,1.037 0.469,1.337 0,1.337 -0.458,1.337 -0.773,1.037 -0.773,0.668 -0.773,0.3 -0.458,0 0,0 m 0.005,-0.7 c -0.811,0 -1.416,0.616 -1.416,1.368 0,0.753 0.605,1.364 1.416,1.364 0.811,0 1.427,-0.611 1.427,-1.364 0,-0.752 -0.616,-1.368 -1.427,-1.368" />
      </g>
      <g
         transform="matrix(0.35277777,0,0,-0.35277777,42.888727,115.63907)"
         id="g1996">
        <path
           inkscape:connector-curvature="0"
           id="path1998"
           style="fill:#00aeef;fill-opacity:1;fill-rule:nonzero;stroke:none"
           d="M 0,0 C 0.469,0 0.795,0.301 0.795,0.669 0.795,1.037 0.469,1.337 0,1.337 -0.458,1.337 -0.773,1.037 -0.773,0.669 -0.773,0.301 -0.458,0 0,0 m 0.005,-0.7 c -0.811,0 -1.416,0.616 -1.416,1.369 0,0.753 0.605,1.363 1.416,1.363 0.811,0 1.427,-0.61 1.427,-1.363 0,-0.753 -0.616,-1.369 -1.427,-1.369" />
      </g>
      <path
         inkscape:connector-curvature="0"
         id="path2000"
         style="fill:#00aeef;fill-opacity:1;fill-rule:nonzero;stroke:none;stroke-width:0.352778"
         d="m 42.413147,116.0588 h 1.38183 v 0.24518 h -1.38183 z" />
      <g
         transform="matrix(0.35277777,0,0,-0.35277777,42.390927,116.91859)"
         id="g2002">
        <path
           inkscape:connector-curvature="0"
           id="path2004"
           style="fill:#00aeef;fill-opacity:1;fill-rule:nonzero;stroke:none"
           d="M 0,0 C 0,0.689 0.363,1.2 0.948,1.284 V 0.579 C 0.716,0.484 0.632,0.205 0.632,0 c 0,-0.279 0.084,-0.49 0.242,-0.49 0.152,0 0.216,0.095 0.29,0.569 0.073,0.483 0.205,1.132 0.811,1.132 0.425,0 0.868,-0.374 0.868,-1.158 0,-0.622 -0.337,-1.085 -0.848,-1.175 V -0.4 c 0.127,0.042 0.227,0.194 0.227,0.453 0,0.32 -0.116,0.452 -0.216,0.452 -0.142,0 -0.19,-0.2 -0.242,-0.537 C 1.653,-0.706 1.506,-1.19 0.916,-1.19 0.379,-1.19 0,-0.695 0,0" />
      </g>
      <g
         transform="matrix(0.35277777,0,0,-0.35277777,42.426377,125.79864)"
         id="g2006">
        <path
           inkscape:connector-curvature="0"
           id="path2008"
           style="fill:#00aeef;fill-opacity:1;fill-rule:nonzero;stroke:none"
           d="M 0,0 V 0.837 L 2.601,2.326 H 0 V 3.021 H 3.653 V 2.184 l -2.6,-1.485 h 2.6 V 0 Z" />
      </g>
      <g
         transform="matrix(0.35277777,0,0,-0.35277777,42.901817,126.69025)"
         id="g2010">
        <path
           inkscape:connector-curvature="0"
           id="path2012"
           style="fill:#00aeef;fill-opacity:1;fill-rule:nonzero;stroke:none"
           d="M 0,0 C 0.469,0 0.795,0.3 0.795,0.668 0.795,1.037 0.469,1.337 0,1.337 -0.458,1.337 -0.773,1.037 -0.773,0.668 -0.773,0.3 -0.458,0 0,0 m 0.005,-0.7 c -0.811,0 -1.416,0.616 -1.416,1.368 0,0.753 0.605,1.364 1.416,1.364 0.811,0 1.427,-0.611 1.427,-1.364 0,-0.752 -0.616,-1.368 -1.427,-1.368" />
      </g>
      <g
         transform="matrix(0.35277777,0,0,-0.35277777,43.486797,127.92946)"
         id="g2014">
        <path
           inkscape:connector-curvature="0"
           id="path2016"
           style="fill:#00aeef;fill-opacity:1;fill-rule:nonzero;stroke:none"
           d="m 0,0 h -1.064 v -0.837 c 0,-0.321 0.164,-0.515 0.533,-0.515 0.368,0 0.531,0.194 0.531,0.515 z M -1.7,-0.857 V 0 h -1.306 v 0.695 h 3.653 v -1.537 c 0,-0.763 -0.462,-1.206 -1.178,-1.206 -0.68,0 -1.169,0.469 -1.169,1.191" />
      </g>
      <path
         inkscape:connector-curvature="0"
         id="path2018"
         style="fill:#00aeef;fill-opacity:1;fill-rule:nonzero;stroke:none;stroke-width:0.352778"
         d="m 42.426197,128.80572 h 1.38183 v 0.24518 h -1.38183 z" />
      <g
         transform="matrix(0.35277777,0,0,-0.35277777,42.426377,130.11537)"
         id="g2020">
        <path
           inkscape:connector-curvature="0"
           id="path2022"
           style="fill:#00aeef;fill-opacity:1;fill-rule:nonzero;stroke:none"
           d="m 0,0 v 0.663 h 0.247 c -0.194,0.169 -0.31,0.405 -0.31,0.691 0,0.641 0.479,1.068 1.19,1.068 H 2.711 V 1.727 H 1.127 C 0.974,1.727 0.595,1.674 0.595,1.222 0.595,0.911 0.826,0.695 1.127,0.695 H 2.711 V 0 Z" />
      </g>
      <g
         transform="matrix(0.35277777,0,0,-0.35277777,43.176737,130.77475)"
         id="g2024">
        <path
           inkscape:connector-curvature="0"
           id="path2026"
           style="fill:#00aeef;fill-opacity:1;fill-rule:nonzero;stroke:none"
           d="m 0,0 c 0,0.385 -0.337,0.695 -0.779,0.695 -0.432,0 -0.764,-0.31 -0.764,-0.695 0,-0.384 0.343,-0.695 0.764,-0.695 C -0.348,-0.695 0,-0.384 0,0 m -1.99,-1.39 c -0.901,0 -1.463,0.538 -1.463,1.406 0,0.647 0.373,1.211 0.947,1.316 V 0.568 c -0.216,-0.088 -0.3,-0.363 -0.3,-0.552 0,-0.49 0.321,-0.711 0.805,-0.711 h 0.132 c -0.2,0.211 -0.316,0.484 -0.316,0.8 0,0.706 0.611,1.29 1.411,1.29 0.805,0 1.416,-0.584 1.416,-1.29 0,-0.332 -0.126,-0.616 -0.347,-0.832 H 0.584 V -1.39 Z" />
      </g>
      <g
         transform="matrix(0.35277777,0,0,-0.35277777,42.150087,140.11715)"
         id="g2028">
        <path
           inkscape:connector-curvature="0"
           id="path2030"
           style="fill:#00aeef;fill-opacity:1;fill-rule:nonzero;stroke:none"
           d="m 0,0 v 0.837 l 2.601,1.49 H 0 V 3.021 H 3.653 V 2.185 L 1.053,0.7 h 2.6 V 0 Z" />
      </g>
      <g
         transform="matrix(0.35277777,0,0,-0.35277777,42.625517,141.00876)"
         id="g2032">
        <path
           inkscape:connector-curvature="0"
           id="path2034"
           style="fill:#00aeef;fill-opacity:1;fill-rule:nonzero;stroke:none"
           d="M 0,0 C 0.469,0 0.795,0.301 0.795,0.669 0.795,1.037 0.469,1.337 0,1.337 -0.458,1.337 -0.773,1.037 -0.773,0.669 -0.773,0.301 -0.458,0 0,0 m 0.005,-0.7 c -0.811,0 -1.416,0.616 -1.416,1.369 0,0.753 0.605,1.363 1.416,1.363 0.811,0 1.427,-0.61 1.427,-1.363 0,-0.753 -0.616,-1.369 -1.427,-1.369" />
      </g>
      <g
         transform="matrix(0.35277777,0,0,-0.35277777,43.048927,142.97384)"
         id="g2036">
        <path
           inkscape:connector-curvature="0"
           id="path2038"
           style="fill:#00aeef;fill-opacity:1;fill-rule:nonzero;stroke:none"
           d="m 0,0 v 0.695 c 0.315,0 0.553,0.263 0.553,0.705 0,0.369 -0.142,0.711 -0.421,0.711 -0.253,0 -0.343,-0.248 -0.458,-0.805 -0.174,-0.87 -0.39,-1.416 -1.138,-1.416 -0.705,0 -1.147,0.589 -1.147,1.51 0,0.716 0.395,1.495 1.274,1.495 V 2.2 c -0.432,0 -0.637,-0.431 -0.637,-0.8 0,-0.4 0.142,-0.816 0.49,-0.816 0.231,0 0.374,0.189 0.505,0.863 0.131,0.674 0.332,1.359 1.116,1.359 C 0.764,2.806 1.2,2.253 1.2,1.4 1.2,0.436 0.579,0 0,0" />
      </g>
      <g
         transform="matrix(0.35277777,0,0,-0.35277777,42.150087,144.04353)"
         id="g2040">
        <path
           inkscape:connector-curvature="0"
           id="path2042"
           style="fill:#00aeef;fill-opacity:1;fill-rule:nonzero;stroke:none"
           d="m 0,0 v 0.694 h 1.585 c 0.157,0 0.516,0.053 0.516,0.506 0,0.311 -0.211,0.527 -0.516,0.527 H 0 v 0.7 h 3.917 v -0.7 H 2.569 C 2.7,1.553 2.779,1.342 2.779,1.105 2.779,0.442 2.301,0 1.585,0 Z" />
      </g>
      <g
         transform="matrix(0.35277777,0,0,-0.35277777,42.625517,144.92033)"
         id="g2044">
        <path
           inkscape:connector-curvature="0"
           id="path2046"
           style="fill:#00aeef;fill-opacity:1;fill-rule:nonzero;stroke:none"
           d="M 0,0 C 0.469,0 0.795,0.3 0.795,0.668 0.795,1.037 0.469,1.337 0,1.337 -0.458,1.337 -0.773,1.037 -0.773,0.668 -0.773,0.3 -0.458,0 0,0 m 0.005,-0.7 c -0.811,0 -1.416,0.616 -1.416,1.368 0,0.753 0.605,1.364 1.416,1.364 0.811,0 1.427,-0.611 1.427,-1.364 0,-0.752 -0.616,-1.368 -1.427,-1.368" />
      </g>
      <g
         transform="matrix(0.35277777,0,0,-0.35277777,42.127717,145.77296)"
         id="g2048">
        <path
           inkscape:connector-curvature="0"
           id="path2050"
           style="fill:#00aeef;fill-opacity:1;fill-rule:nonzero;stroke:none"
           d="m 0,0 c 0,0.816 0.632,1.4 1.416,1.4 0.785,0 1.427,-0.584 1.427,-1.4 0,-0.652 -0.368,-1.147 -0.979,-1.306 v 0.743 C 2.048,-0.469 2.206,-0.253 2.206,0 2.206,0.385 1.848,0.695 1.411,0.695 0.984,0.695 0.632,0.385 0.632,0 c 0,-0.258 0.158,-0.479 0.347,-0.568 V -1.311 C 0.363,-1.152 0,-0.658 0,0" />
      </g>
      <g
         transform="matrix(0.35277777,0,0,-0.35277777,42.424997,146.64044)"
         id="g2052">
        <path
           inkscape:connector-curvature="0"
           id="path2054"
           style="fill:#00aeef;fill-opacity:1;fill-rule:nonzero;stroke:none"
           d="M 0,0 H -0.779 V 0.695 H 3.138 V 0 H 0.947 l 0.985,-0.89 v -0.958 l -1.058,1.011 -1.653,-1.068 v 0.884 l 1.142,0.673 z" />
      </g>
      <g
         transform="matrix(0.35277777,0,0,-0.35277777,48.485617,119.56234)"
         id="g2056">
        <path
           inkscape:connector-curvature="0"
           id="path2058"
           style="fill:#00aeef;fill-opacity:1;fill-rule:nonzero;stroke:none"
           d="m 0,0 c 0,0.027 0.016,0.052 0.038,0.066 0.009,0.006 0.015,0.016 0.015,0.028 v 0.031 c 0,0.011 -0.006,0.02 -0.015,0.026 C 0.016,0.165 0,0.19 0,0.218 0,0.245 0.016,0.27 0.038,0.283 0.047,0.289 0.053,0.299 0.053,0.311 V 0.342 C 0.053,0.354 0.047,0.363 0.038,0.368 0.016,0.383 0,0.407 0,0.435 0,0.462 0.016,0.486 0.038,0.501 0.047,0.506 0.053,0.517 0.053,0.528 V 0.56 C 0.053,0.57 0.047,0.58 0.038,0.586 0.016,0.6 0,0.625 0,0.652 0,0.679 0.016,0.704 0.038,0.718 0.047,0.724 0.053,0.734 0.053,0.745 V 0.776 C 0.053,0.787 0.047,0.798 0.038,0.803 0.016,0.817 0,0.842 0,0.868 0,0.896 0.016,0.921 0.038,0.936 0.047,0.94 0.053,0.951 0.053,0.962 V 0.994 C 0.053,1.004 0.047,1.015 0.038,1.02 0.016,1.034 0,1.059 0,1.087 0,1.114 0.016,1.138 0.038,1.152 0.047,1.158 0.053,1.169 0.053,1.18 v 0.031 c 0,0.011 -0.006,0.02 -0.015,0.026 C 0.016,1.252 0,1.276 0,1.304 0,1.33 0.016,1.356 0.038,1.373 c 0.009,0.006 0.015,0.018 0.013,0.028 0,0.012 -0.008,0.021 -0.018,0.026 l -0.186,0.084 c -0.003,0.002 -0.005,0.005 -0.003,0.007 l 0.038,0.087 c 0.005,0.015 0,0.031 -0.013,0.039 L -0.248,1.722 C -0.25,1.723 -0.251,1.726 -0.249,1.729 l 0.026,0.043 c 0.01,0.014 0.006,0.033 -0.005,0.041 l -0.108,0.08 C -0.339,1.895 -0.34,1.897 -0.338,1.899 l 0.033,0.048 c 0.009,0.011 0.009,0.026 0,0.036 l -0.106,0.155 c -0.001,10e-4 -0.001,0.005 0.002,0.007 l 0.043,0.031 c 0.013,0.009 0.017,0.025 0.009,0.04 L -0.435,2.36 c 0.001,0.001 0.003,0.006 0.003,0.007 l 0.075,0.043 c 0.013,0.009 0.019,0.025 0.013,0.038 l -0.072,0.189 c 0,0.003 0,0.005 0.004,0.007 l 0.119,0.053 c 0.015,0.007 0.023,0.026 0.017,0.041 l -0.052,0.127 0.122,0.051 c 0.007,0.003 0.013,0.009 0.017,0.018 0.004,0.006 0.004,0.015 0,0.023 l -0.057,0.144 0.195,0.079 c 0.014,0.004 0.024,0.015 0.024,0.031 0,0.006 0,0.011 -0.003,0.016 0.003,0.004 0.005,0.009 0.005,0.015 v 0.172 c 0,0.063 0.054,0.085 0.089,0.091 C 0.068,3.507 0.073,3.509 0.076,3.512 0.08,3.509 0.084,3.507 0.088,3.507 0.131,3.498 0.184,3.475 0.184,3.414 V 3.242 C 0.184,3.236 0.186,3.23 0.19,3.225 0.187,3.223 0.186,3.22 0.186,3.217 0.184,3.202 0.191,3.188 0.206,3.182 L 0.404,3.105 0.348,2.957 C 0.346,2.949 0.346,2.94 0.349,2.934 0.352,2.925 0.357,2.919 0.366,2.916 L 0.482,2.87 0.436,2.738 C 0.43,2.723 0.436,2.704 0.451,2.697 L 0.568,2.644 C 0.572,2.642 0.574,2.64 0.573,2.637 L 0.502,2.448 C 0.497,2.435 0.502,2.419 0.516,2.41 L 0.59,2.367 0.592,2.36 0.515,2.216 C 0.508,2.201 0.512,2.185 0.524,2.176 L 0.567,2.145 C 0.57,2.143 0.57,2.139 0.568,2.138 L 0.463,1.983 C 0.455,1.973 0.455,1.958 0.463,1.947 L 0.497,1.899 c 0,-0.002 0,-0.004 -0.002,-0.006 L 0.389,1.813 C 0.375,1.805 0.372,1.786 0.381,1.772 L 0.407,1.729 C 0.409,1.726 0.409,1.723 0.406,1.722 L 0.289,1.644 C 0.275,1.636 0.272,1.62 0.277,1.605 L 0.315,1.518 C 0.316,1.516 0.315,1.513 0.312,1.511 L 0.126,1.427 C 0.115,1.422 0.108,1.413 0.107,1.401 0.107,1.391 0.111,1.379 0.121,1.373 0.144,1.356 0.158,1.33 0.158,1.304 0.158,1.276 0.144,1.252 0.121,1.237 0.11,1.231 0.105,1.222 0.105,1.211 V 1.18 C 0.105,1.169 0.11,1.158 0.121,1.152 0.144,1.138 0.158,1.114 0.158,1.087 0.158,1.059 0.144,1.034 0.121,1.02 0.11,1.015 0.105,1.004 0.105,0.994 V 0.962 C 0.105,0.951 0.11,0.94 0.121,0.936 0.144,0.921 0.158,0.896 0.158,0.868 0.158,0.842 0.144,0.817 0.121,0.803 0.11,0.798 0.105,0.787 0.105,0.776 V 0.745 C 0.105,0.734 0.11,0.724 0.121,0.718 0.144,0.704 0.158,0.679 0.158,0.652 0.158,0.625 0.144,0.6 0.121,0.586 0.11,0.58 0.105,0.57 0.105,0.56 V 0.528 C 0.105,0.517 0.11,0.506 0.121,0.501 0.144,0.486 0.158,0.462 0.158,0.435 0.158,0.407 0.144,0.383 0.121,0.368 0.11,0.363 0.105,0.354 0.105,0.342 V 0.311 C 0.105,0.299 0.11,0.289 0.121,0.283 0.144,0.27 0.158,0.245 0.158,0.218 0.158,0.19 0.144,0.165 0.121,0.151 0.11,0.145 0.105,0.136 0.105,0.125 V 0.094 C 0.105,0.082 0.11,0.072 0.121,0.066 0.144,0.052 0.158,0.027 0.158,0 0.158,-0.037 0.129,-0.071 0.091,-0.077 0.088,-0.077 0.083,-0.078 0.078,-0.08 0.075,-0.078 0.072,-0.077 0.068,-0.077 0.029,-0.071 0,-0.037 0,0 M 5.518,30.106 C 5.44,30.393 5.067,31.153 4.265,31.228 4.221,31.232 4.172,31.234 4.121,31.234 3.784,31.234 3.247,31.136 3.105,30.915 3.061,30.847 3.111,30.505 3.252,29.618 3.254,29.613 3.255,29.607 3.258,29.603 3.257,29.598 3.255,29.592 3.257,29.586 L 3.258,29.578 C 3.527,27.894 4.027,24.759 3.666,22.818 3.293,20.823 2.377,18.294 1.77,16.622 1.531,15.963 1.341,15.441 1.25,15.127 0.951,14.122 0.631,12.651 0.58,12.226 L 0.586,12.144 C 0.576,12.143 0.567,12.139 0.562,12.131 0.53,12.086 0.495,12.038 0.461,11.992 0.414,11.927 0.372,11.868 0.352,11.839 0.299,11.761 0.302,11.615 0.305,11.474 0.307,11.44 0.309,11.406 0.309,11.373 v -1.35 L 0.182,9.896 C 0.147,9.898 0.113,9.899 0.078,9.899 0.041,9.899 0.003,9.897 -0.033,9.895 -0.035,9.903 -0.037,9.911 -0.043,9.917 l -0.107,0.106 v 1.35 c 0,0.033 0.002,0.067 0.003,0.101 0.002,0.141 0.006,0.287 -0.046,0.365 -0.028,0.039 -0.096,0.134 -0.205,0.281 -0.004,0.007 -0.014,0.011 -0.022,0.012 l 0.003,0.048 c -0.035,0.374 -0.364,1.903 -0.673,2.947 -0.093,0.314 -0.283,0.835 -0.521,1.495 -0.608,1.672 -1.526,4.201 -1.897,6.196 -0.361,1.941 0.139,5.075 0.407,6.759 l 0.003,0.009 c 10e-4,0.006 -0.001,0.012 -0.003,0.017 0.004,0.004 0.007,0.01 0.009,0.015 0.141,0.887 0.19,1.229 0.145,1.297 -0.142,0.221 -0.68,0.319 -1.016,0.319 -0.051,0 -0.099,-0.002 -0.144,-0.006 -0.801,-0.075 -1.176,-0.835 -1.251,-1.122 -0.01,-0.036 -0.923,-3.921 -0.646,-7.547 0.259,-3.382 1.504,-6.602 1.834,-7.212 0.263,-0.489 0.168,-1.282 -0.043,-1.85 -0.184,-0.504 -0.656,-0.866 -0.91,-1.061 -0.031,-0.023 -0.06,-0.045 -0.084,-0.064 -0.189,-0.151 -0.217,-0.337 -0.078,-0.552 0.09,-0.139 0.216,-0.192 0.351,-0.146 0.036,0.012 0.059,0.019 0.097,0.019 0.087,0 0.249,-0.043 0.747,-0.2 0.155,-0.049 0.298,-0.126 0.419,-0.228 0.005,-0.004 0.011,-0.006 0.017,-0.007 10e-4,-0.006 0.004,-0.01 0.008,-0.015 0.279,-0.245 0.4,-0.576 0.474,-0.774 0.018,-0.046 0.031,-0.084 0.045,-0.113 0.08,-0.183 0.231,-0.264 0.443,-0.24 0.088,0.025 0.18,0.051 0.276,0.079 l -0.02,-1.4 c 0,-0.012 0.008,-0.023 0.018,-0.028 L -1.885,8.491 C -1.883,8.49 -1.881,8.49 -1.879,8.49 -1.948,8.283 -1.984,8.063 -1.984,7.833 c 0,-0.165 0.017,-0.323 0.053,-0.48 L -1.934,7.352 C -2.039,7.31 -2.385,7.17 -2.434,7.15 -2.463,7.138 -2.486,7.116 -2.502,7.087 -2.504,7.081 -2.506,7.072 -2.504,7.065 -2.502,7.057 -2.5,7.048 -2.498,7.039 -2.511,7.036 -2.521,7.025 -2.521,7.011 L -2.523,6.989 -2.531,4.507 c 0,-0.053 0.02,-0.104 0.045,-0.162 l 0.013,-0.032 c 0.02,-0.049 0.678,-1.802 1.158,-3.083 0.305,-0.811 0.547,-1.453 0.561,-1.494 0.028,-0.074 0.065,-0.104 0.132,-0.112 0.007,-0.001 0.015,0.003 0.02,0.007 0.006,-0.005 0.012,-0.009 0.02,-0.009 h 0.646 c 0.004,0 0.01,0.002 0.014,0.005 0.006,-0.003 0.012,-0.005 0.018,-0.005 H 0.74 c 0.008,0 0.014,0.004 0.02,0.009 0.006,-0.004 0.013,-0.008 0.021,-0.007 0.068,0.008 0.103,0.038 0.131,0.112 0.016,0.041 0.253,0.674 0.555,1.475 0.482,1.288 1.144,3.053 1.164,3.102 L 2.645,4.345 C 2.669,4.404 2.69,4.454 2.69,4.507 L 2.68,7.011 C 2.678,7.025 2.67,7.036 2.656,7.039 2.657,7.047 2.66,7.057 2.662,7.065 2.664,7.072 2.664,7.081 2.66,7.087 2.645,7.116 2.621,7.138 2.59,7.15 2.541,7.172 2.138,7.333 2.092,7.352 c -0.002,0 -0.002,0 -0.004,0 0.037,0.155 0.057,0.316 0.057,0.481 0,0.222 -0.038,0.45 -0.109,0.661 l 0.532,0.273 c 0.01,0.005 0.018,0.016 0.018,0.028 L 2.568,10.2 c 0.106,-0.031 0.204,-0.059 0.295,-0.086 0.002,0 0.004,-0.001 0.007,-0.001 0.196,-0.013 0.337,0.069 0.415,0.243 0.014,0.029 0.028,0.067 0.045,0.113 0.073,0.198 0.195,0.529 0.473,0.774 0.006,0.005 0.008,0.009 0.01,0.015 0.004,0.001 0.011,0.003 0.016,0.007 0.122,0.102 0.264,0.179 0.419,0.228 0.5,0.157 0.661,0.2 0.747,0.2 0.038,0 0.062,-0.007 0.097,-0.019 0.135,-0.046 0.26,0.007 0.35,0.146 0.14,0.215 0.113,0.401 -0.078,0.552 -0.023,0.019 -0.053,0.041 -0.083,0.064 -0.252,0.195 -0.725,0.557 -0.911,1.061 -0.21,0.568 -0.305,1.361 -0.041,1.85 0.329,0.61 1.574,3.83 1.833,7.212 0.278,3.626 -0.635,7.511 -0.644,7.547" />
      </g>
      <g
         transform="matrix(0.35277777,0,0,-0.35277777,47.335667,127.95563)"
         id="g2060">
        <path
           inkscape:connector-curvature="0"
           id="path2062"
           style="fill:#00aeef;fill-opacity:1;fill-rule:nonzero;stroke:none"
           d="m 0,0 c 0,0.792 -0.643,1.434 -1.434,1.434 h -1.389 v -2.866 h 1.389 C -0.643,-1.432 0,-0.791 0,0 M 6.533,-2.738 H 2.824 V -4.003 H 6.533 Z M 6.87,4.132 H 2.486 V 2.866 H 6.87 Z M 3.035,-8.949 c -2.968,0 -5.569,1.554 -7.039,3.894 v 10.27 c 1.47,2.34 4.071,3.895 7.039,3.895 3.053,0 5.722,-1.648 7.164,-4.104 V -4.846 C 8.757,-7.301 6.088,-8.949 3.035,-8.949" />
      </g>
      <g
         transform="matrix(0.35277777,0,0,-0.35277777,50.822767,99.792503)"
         id="g2064">
        <path
           inkscape:connector-curvature="0"
           id="path2066"
           style="fill:#00aeef;fill-opacity:1;fill-rule:nonzero;stroke:none"
           d="m 0,0 c -0.662,0 -1.202,0.54 -1.202,1.204 v 15.244 c 0,0.665 0.54,1.204 1.202,1.204 0.666,0 1.204,-0.539 1.204,-1.204 V 1.204 C 1.204,0.54 0.666,0 0,0" />
      </g>
      <g
         transform="matrix(0.35277777,0,0,-0.35277777,50.822767,99.792503)"
         id="g2068">
        <path
           inkscape:connector-curvature="0"
           id="path2070"
           style="fill:none;stroke:#ffffff;stroke-width:0.405;stroke-linecap:butt;stroke-linejoin:miter;stroke-miterlimit:10;stroke-dasharray:none;stroke-opacity:1"
           d="m 0,0 c -0.662,0 -1.202,0.54 -1.202,1.204 v 15.244 c 0,0.665 0.54,1.204 1.202,1.204 0.666,0 1.204,-0.539 1.204,-1.204 V 1.204 C 1.204,0.54 0.666,0 0,0 Z" />
      </g>
      <g
         transform="matrix(0.35277777,0,0,-0.35277777,45.970347,99.792503)"
         id="g2072">
        <path
           inkscape:connector-curvature="0"
           id="path2074"
           style="fill:#00aeef;fill-opacity:1;fill-rule:nonzero;stroke:none"
           d="m 0,0 c -0.665,0 -1.203,0.54 -1.203,1.204 v 15.244 c 0,0.665 0.538,1.204 1.203,1.204 0.665,0 1.204,-0.539 1.204,-1.204 V 1.204 C 1.204,0.54 0.665,0 0,0" />
      </g>
      <g
         transform="matrix(0.35277777,0,0,-0.35277777,45.970347,99.792503)"
         id="g2076">
        <path
           inkscape:connector-curvature="0"
           id="path2078"
           style="fill:none;stroke:#ffffff;stroke-width:0.405;stroke-linecap:butt;stroke-linejoin:miter;stroke-miterlimit:10;stroke-dasharray:none;stroke-opacity:1"
           d="m 0,0 c -0.665,0 -1.203,0.54 -1.203,1.204 v 15.244 c 0,0.665 0.538,1.204 1.203,1.204 0.665,0 1.204,-0.539 1.204,-1.204 V 1.204 C 1.204,0.54 0.665,0 0,0 Z" />
      </g>
      <g
         transform="matrix(0.35277777,0,0,-0.35277777,50.216447,99.064193)"
         id="g2080">
        <path
           inkscape:connector-curvature="0"
           id="path2082"
           style="fill:#00aeef;fill-opacity:1;fill-rule:nonzero;stroke:none"
           d="m 0,0 c -0.284,0 -0.516,0.23 -0.516,0.515 v 12.493 c 0,0.284 0.232,0.515 0.516,0.515 0.285,0 0.517,-0.231 0.517,-0.515 V 0.515 C 0.517,0.23 0.285,0 0,0" />
      </g>
      <g
         transform="matrix(0.35277777,0,0,-0.35277777,50.216447,99.064193)"
         id="g2084">
        <path
           inkscape:connector-curvature="0"
           id="path2086"
           style="fill:none;stroke:#ffffff;stroke-width:0.405;stroke-linecap:butt;stroke-linejoin:miter;stroke-miterlimit:10;stroke-dasharray:none;stroke-opacity:1"
           d="m 0,0 c -0.284,0 -0.516,0.23 -0.516,0.515 v 12.493 c 0,0.284 0.232,0.515 0.516,0.515 0.285,0 0.517,-0.231 0.517,-0.515 V 0.515 C 0.517,0.23 0.285,0 0,0 Z" />
      </g>
      <g
         transform="matrix(0.35277777,0,0,-0.35277777,49.852277,99.064193)"
         id="g2088">
        <path
           inkscape:connector-curvature="0"
           id="path2090"
           style="fill:#00aeef;fill-opacity:1;fill-rule:nonzero;stroke:none"
           d="m 0,0 c -0.284,0 -0.515,0.23 -0.515,0.515 v 12.493 c 0,0.284 0.231,0.515 0.515,0.515 0.284,0 0.517,-0.231 0.517,-0.515 V 0.515 C 0.517,0.23 0.284,0 0,0" />
      </g>
      <g
         transform="matrix(0.35277777,0,0,-0.35277777,49.852277,99.064193)"
         id="g2092">
        <path
           inkscape:connector-curvature="0"
           id="path2094"
           style="fill:none;stroke:#ffffff;stroke-width:0.405;stroke-linecap:butt;stroke-linejoin:miter;stroke-miterlimit:10;stroke-dasharray:none;stroke-opacity:1"
           d="m 0,0 c -0.284,0 -0.515,0.23 -0.515,0.515 v 12.493 c 0,0.284 0.231,0.515 0.515,0.515 0.284,0 0.517,-0.231 0.517,-0.515 V 0.515 C 0.517,0.23 0.284,0 0,0 Z" />
      </g>
      <g
         transform="matrix(0.35277777,0,0,-0.35277777,49.488847,99.064193)"
         id="g2096">
        <path
           inkscape:connector-curvature="0"
           id="path2098"
           style="fill:#00aeef;fill-opacity:1;fill-rule:nonzero;stroke:none"
           d="m 0,0 c -0.285,0 -0.517,0.23 -0.517,0.515 v 12.493 c 0,0.284 0.232,0.515 0.517,0.515 0.284,0 0.516,-0.231 0.516,-0.515 V 0.515 C 0.516,0.23 0.284,0 0,0" />
      </g>
      <g
         transform="matrix(0.35277777,0,0,-0.35277777,49.488847,99.064193)"
         id="g2100">
        <path
           inkscape:connector-curvature="0"
           id="path2102"
           style="fill:none;stroke:#ffffff;stroke-width:0.405;stroke-linecap:butt;stroke-linejoin:miter;stroke-miterlimit:10;stroke-dasharray:none;stroke-opacity:1"
           d="m 0,0 c -0.285,0 -0.517,0.23 -0.517,0.515 v 12.493 c 0,0.284 0.232,0.515 0.517,0.515 0.284,0 0.516,-0.231 0.516,-0.515 V 0.515 C 0.516,0.23 0.284,0 0,0 Z" />
      </g>
      <g
         transform="matrix(0.35277777,0,0,-0.35277777,49.125027,99.064193)"
         id="g2104">
        <path
           inkscape:connector-curvature="0"
           id="path2106"
           style="fill:#00aeef;fill-opacity:1;fill-rule:nonzero;stroke:none"
           d="m 0,0 c -0.285,0 -0.518,0.23 -0.518,0.515 v 12.493 c 0,0.284 0.233,0.515 0.518,0.515 0.284,0 0.515,-0.231 0.515,-0.515 V 0.515 C 0.515,0.23 0.284,0 0,0" />
      </g>
      <g
         transform="matrix(0.35277777,0,0,-0.35277777,49.125027,99.064193)"
         id="g2108">
        <path
           inkscape:connector-curvature="0"
           id="path2110"
           style="fill:none;stroke:#ffffff;stroke-width:0.405;stroke-linecap:butt;stroke-linejoin:miter;stroke-miterlimit:10;stroke-dasharray:none;stroke-opacity:1"
           d="m 0,0 c -0.285,0 -0.518,0.23 -0.518,0.515 v 12.493 c 0,0.284 0.233,0.515 0.518,0.515 0.284,0 0.515,-0.231 0.515,-0.515 V 0.515 C 0.515,0.23 0.284,0 0,0 Z" />
      </g>
      <g
         transform="matrix(0.35277777,0,0,-0.35277777,48.760537,99.064193)"
         id="g2112">
        <path
           inkscape:connector-curvature="0"
           id="path2114"
           style="fill:#00aeef;fill-opacity:1;fill-rule:nonzero;stroke:none"
           d="m 0,0 c -0.285,0 -0.516,0.23 -0.516,0.515 v 12.493 c 0,0.284 0.231,0.515 0.516,0.515 0.285,0 0.516,-0.231 0.516,-0.515 V 0.515 C 0.516,0.23 0.285,0 0,0" />
      </g>
      <g
         transform="matrix(0.35277777,0,0,-0.35277777,48.760537,99.064193)"
         id="g2116">
        <path
           inkscape:connector-curvature="0"
           id="path2118"
           style="fill:none;stroke:#ffffff;stroke-width:0.405;stroke-linecap:butt;stroke-linejoin:miter;stroke-miterlimit:10;stroke-dasharray:none;stroke-opacity:1"
           d="m 0,0 c -0.285,0 -0.516,0.23 -0.516,0.515 v 12.493 c 0,0.284 0.231,0.515 0.516,0.515 0.285,0 0.516,-0.231 0.516,-0.515 V 0.515 C 0.516,0.23 0.285,0 0,0 Z" />
      </g>
      <g
         transform="matrix(0.35277777,0,0,-0.35277777,48.396757,99.064193)"
         id="g2120">
        <path
           inkscape:connector-curvature="0"
           id="path2122"
           style="fill:#00aeef;fill-opacity:1;fill-rule:nonzero;stroke:none"
           d="m 0,0 c -0.285,0 -0.517,0.23 -0.517,0.515 v 12.493 c 0,0.284 0.232,0.515 0.517,0.515 0.284,0 0.516,-0.231 0.516,-0.515 V 0.515 C 0.516,0.23 0.284,0 0,0" />
      </g>
      <g
         transform="matrix(0.35277777,0,0,-0.35277777,48.396757,99.064193)"
         id="g2124">
        <path
           inkscape:connector-curvature="0"
           id="path2126"
           style="fill:none;stroke:#ffffff;stroke-width:0.405;stroke-linecap:butt;stroke-linejoin:miter;stroke-miterlimit:10;stroke-dasharray:none;stroke-opacity:1"
           d="m 0,0 c -0.285,0 -0.517,0.23 -0.517,0.515 v 12.493 c 0,0.284 0.232,0.515 0.517,0.515 0.284,0 0.516,-0.231 0.516,-0.515 V 0.515 C 0.516,0.23 0.284,0 0,0 Z" />
      </g>
      <g
         transform="matrix(0.35277777,0,0,-0.35277777,48.032937,99.064193)"
         id="g2128">
        <path
           inkscape:connector-curvature="0"
           id="path2130"
           style="fill:#00aeef;fill-opacity:1;fill-rule:nonzero;stroke:none"
           d="m 0,0 c -0.285,0 -0.516,0.23 -0.516,0.515 v 12.493 c 0,0.284 0.231,0.515 0.516,0.515 0.285,0 0.515,-0.231 0.515,-0.515 V 0.515 C 0.515,0.23 0.285,0 0,0" />
      </g>
      <g
         transform="matrix(0.35277777,0,0,-0.35277777,48.032937,99.064193)"
         id="g2132">
        <path
           inkscape:connector-curvature="0"
           id="path2134"
           style="fill:none;stroke:#ffffff;stroke-width:0.405;stroke-linecap:butt;stroke-linejoin:miter;stroke-miterlimit:10;stroke-dasharray:none;stroke-opacity:1"
           d="m 0,0 c -0.285,0 -0.516,0.23 -0.516,0.515 v 12.493 c 0,0.284 0.231,0.515 0.516,0.515 0.285,0 0.515,-0.231 0.515,-0.515 V 0.515 C 0.515,0.23 0.285,0 0,0 Z" />
      </g>
      <g
         transform="matrix(0.35277777,0,0,-0.35277777,47.668447,99.064193)"
         id="g2136">
        <path
           inkscape:connector-curvature="0"
           id="path2138"
           style="fill:#00aeef;fill-opacity:1;fill-rule:nonzero;stroke:none"
           d="m 0,0 c -0.285,0 -0.516,0.23 -0.516,0.515 v 12.493 c 0,0.284 0.231,0.515 0.516,0.515 0.285,0 0.518,-0.231 0.518,-0.515 V 0.515 C 0.518,0.23 0.285,0 0,0" />
      </g>
      <g
         transform="matrix(0.35277777,0,0,-0.35277777,47.668447,99.064193)"
         id="g2140">
        <path
           inkscape:connector-curvature="0"
           id="path2142"
           style="fill:none;stroke:#ffffff;stroke-width:0.405;stroke-linecap:butt;stroke-linejoin:miter;stroke-miterlimit:10;stroke-dasharray:none;stroke-opacity:1"
           d="m 0,0 c -0.285,0 -0.516,0.23 -0.516,0.515 v 12.493 c 0,0.284 0.231,0.515 0.516,0.515 0.285,0 0.518,-0.231 0.518,-0.515 V 0.515 C 0.518,0.23 0.285,0 0,0 Z" />
      </g>
      <g
         transform="matrix(0.35277777,0,0,-0.35277777,47.304657,99.064193)"
         id="g2144">
        <path
           inkscape:connector-curvature="0"
           id="path2146"
           style="fill:#00aeef;fill-opacity:1;fill-rule:nonzero;stroke:none"
           d="m 0,0 c -0.284,0 -0.516,0.23 -0.516,0.515 v 11.804 c 0,0.285 0.232,0.516 0.516,0.516 0.285,0 0.516,-0.231 0.516,-0.516 V 0.515 C 0.516,0.23 0.285,0 0,0" />
      </g>
      <g
         transform="matrix(0.35277777,0,0,-0.35277777,47.304657,99.064193)"
         id="g2148">
        <path
           inkscape:connector-curvature="0"
           id="path2150"
           style="fill:none;stroke:#ffffff;stroke-width:0.405;stroke-linecap:butt;stroke-linejoin:miter;stroke-miterlimit:10;stroke-dasharray:none;stroke-opacity:1"
           d="m 0,0 c -0.284,0 -0.516,0.23 -0.516,0.515 v 11.804 c 0,0.285 0.232,0.516 0.516,0.516 0.285,0 0.516,-0.231 0.516,-0.516 V 0.515 C 0.516,0.23 0.285,0 0,0 Z" />
      </g>
      <g
         transform="matrix(0.35277777,0,0,-0.35277777,46.940837,99.064193)"
         id="g2152">
        <path
           inkscape:connector-curvature="0"
           id="path2154"
           style="fill:#00aeef;fill-opacity:1;fill-rule:nonzero;stroke:none"
           d="m 0,0 c -0.285,0 -0.516,0.23 -0.516,0.515 v 11.804 c 0,0.285 0.231,0.516 0.516,0.516 0.285,0 0.516,-0.231 0.516,-0.516 V 0.515 C 0.516,0.23 0.285,0 0,0" />
      </g>
      <g
         transform="matrix(0.35277777,0,0,-0.35277777,46.940837,99.064193)"
         id="g2156">
        <path
           inkscape:connector-curvature="0"
           id="path2158"
           style="fill:none;stroke:#ffffff;stroke-width:0.405;stroke-linecap:butt;stroke-linejoin:miter;stroke-miterlimit:10;stroke-dasharray:none;stroke-opacity:1"
           d="m 0,0 c -0.285,0 -0.516,0.23 -0.516,0.515 v 11.804 c 0,0.285 0.231,0.516 0.516,0.516 0.285,0 0.516,-0.231 0.516,-0.516 V 0.515 C 0.516,0.23 0.285,0 0,0 Z" />
      </g>
      <g
         transform="matrix(0.35277777,0,0,-0.35277777,46.577057,99.064193)"
         id="g2160">
        <path
           inkscape:connector-curvature="0"
           id="path2162"
           style="fill:#00aeef;fill-opacity:1;fill-rule:nonzero;stroke:none"
           d="m 0,0 c -0.285,0 -0.518,0.23 -0.518,0.515 v 11.804 c 0,0.285 0.233,0.516 0.518,0.516 0.284,0 0.516,-0.231 0.516,-0.516 V 0.515 C 0.516,0.23 0.284,0 0,0" />
      </g>
      <g
         transform="matrix(0.35277777,0,0,-0.35277777,46.577057,99.064193)"
         id="g2164">
        <path
           inkscape:connector-curvature="0"
           id="path2166"
           style="fill:none;stroke:#ffffff;stroke-width:0.405;stroke-linecap:butt;stroke-linejoin:miter;stroke-miterlimit:10;stroke-dasharray:none;stroke-opacity:1"
           d="m 0,0 c -0.285,0 -0.518,0.23 -0.518,0.515 v 11.804 c 0,0.285 0.233,0.516 0.518,0.516 0.284,0 0.516,-0.231 0.516,-0.516 V 0.515 C 0.516,0.23 0.284,0 0,0 Z" />
      </g>
      <g
         transform="matrix(0.35277777,0,0,-0.35277777,46.418557,103.20002)"
         id="g2168">
        <path
           inkscape:connector-curvature="0"
           id="path2170"
           style="fill:#00aeef;fill-opacity:1;fill-rule:nonzero;stroke:none"
           d="m 0,0 v 1.605 c 0,1.553 0.522,3.076 1.027,4.549 0.512,1.486 1.038,3.023 1.038,4.599 v 2.225 H 2.959 V 10.753 C 2.959,9.027 2.406,7.42 1.873,5.864 1.369,4.395 0.894,3.009 0.894,1.605 V 0 Z" />
      </g>
      <g
         transform="matrix(0.35277777,0,0,-0.35277777,46.418557,103.20002)"
         id="g2172">
        <path
           inkscape:connector-curvature="0"
           id="path2174"
           style="fill:none;stroke:#ffffff;stroke-width:0.202;stroke-linecap:butt;stroke-linejoin:miter;stroke-miterlimit:10;stroke-dasharray:none;stroke-opacity:1"
           d="m 0,0 v 1.605 c 0,1.553 0.522,3.076 1.027,4.549 0.512,1.486 1.038,3.023 1.038,4.599 v 2.225 H 2.959 V 10.753 C 2.959,9.027 2.406,7.42 1.873,5.864 1.369,4.395 0.894,3.009 0.894,1.605 V 0 Z" />
      </g>
      <g
         transform="matrix(0.35277777,0,0,-0.35277777,46.989767,142.73819)"
         id="g2176">
        <path
           inkscape:connector-curvature="0"
           id="path2178"
           style="fill:#00aeef;fill-opacity:1;fill-rule:nonzero;stroke:none"
           d="m 0,0 -2.974,-0.847 2.538,-2.022 -0.358,1.255 6.558,-1.691 -1.922,3.381 5.201,-2.151 v 1.87 L 1.717,1.691 3.484,-1.59 -0.538,-0.973 m -2.699,-9.376 c -0.38,0.219 -0.614,0.624 -0.614,1.062 V 7.092 c 0,0.437 0.234,0.842 0.614,1.06 0.379,0.22 0.846,0.22 1.225,0 l 14.184,-8.188 c 0.379,-0.22 0.613,-0.624 0.613,-1.063 0,-0.437 -0.234,-0.842 -0.613,-1.061 l -14.184,-8.189 c -0.379,-0.218 -0.846,-0.218 -1.225,0" />
      </g>
      <g
         id="g2180"
         transform="matrix(0.35277777,0,0,-0.35277777,-88.975403,199.14749)">
        <g
           id="g2182" />
        <g
           id="g2194">
          <g
             id="g2192"
             clip-path="url(#clipPath2186)">
            <g
               id="g2190"
               transform="translate(394.5283,280.0903)">
              <path
                 inkscape:connector-curvature="0"
                 id="path2188"
                 style="fill:#ec008c;fill-opacity:1;fill-rule:nonzero;stroke:none"
                 d="m 0,0 1.781,0.968 -5.056,9.307 5.117,9.274 -1.774,0.977 -4.488,-8.136 -4.437,8.166 -1.784,-0.966 5.057,-9.307 -5.115,-9.275 1.775,-0.98 4.489,8.14 z" />
            </g>
          </g>
        </g>
      </g>
      <g
         id="g2196"
         transform="matrix(0.35277777,0,0,-0.35277777,-88.975403,199.14749)">
        <g
           id="g2198" />
        <g
           id="g2210">
          <g
             id="g2208"
             clip-path="url(#clipPath2202)">
            <g
               id="g2206"
               transform="translate(394.3975,230.4751)">
              <path
                 inkscape:connector-curvature="0"
                 id="path2204"
                 style="fill:#ec008c;fill-opacity:1;fill-rule:nonzero;stroke:none"
                 d="m 0,0 1.782,0.967 -5.057,9.308 5.116,9.274 -1.774,0.977 -4.487,-8.137 -4.437,8.167 -1.784,-0.966 5.056,-9.307 -5.113,-9.276 1.773,-0.979 4.489,8.141 z" />
            </g>
          </g>
        </g>
      </g>
      <g
         id="g2212"
         transform="matrix(0.35277777,0,0,-0.35277777,-88.975403,199.14749)">
        <g
           id="g2214" />
        <g
           id="g2226">
          <g
             id="g2224"
             clip-path="url(#clipPath2218)">
            <g
               id="g2222"
               transform="translate(394.4346,191.792)">
              <path
                 inkscape:connector-curvature="0"
                 id="path2220"
                 style="fill:#ec008c;fill-opacity:1;fill-rule:nonzero;stroke:none"
                 d="m 0,0 1.782,0.967 -5.057,9.308 5.116,9.274 -1.774,0.977 -4.487,-8.136 -4.438,8.166 -1.783,-0.966 5.056,-9.307 -5.113,-9.275 1.773,-0.98 4.489,8.14 z" />
            </g>
          </g>
        </g>
      </g>
      <g
         id="g2228"
         transform="matrix(0.35277777,0,0,-0.35277777,-88.975403,199.14749)">
        <g
           id="g2230" />
        <g
           id="g2242">
          <g
             id="g2240"
             clip-path="url(#clipPath2234)">
            <g
               id="g2238"
               transform="translate(394.5127,148.168)">
              <path
                 inkscape:connector-curvature="0"
                 id="path2236"
                 style="fill:#ec008c;fill-opacity:1;fill-rule:nonzero;stroke:none"
                 d="m 0,0 1.781,0.968 -5.056,9.307 5.116,9.274 -1.774,0.977 -4.487,-8.136 -4.437,8.166 -1.784,-0.965 5.056,-9.308 -5.114,-9.275 1.774,-0.98 4.489,8.141 z" />
            </g>
          </g>
        </g>
      </g>
    </g>
  </g>
</svg>
